 <svg  version="1.0" xmlns="http://www.w3.org/2000/svg"  width="72.000000pt" height="46.000000pt" viewBox="0 0 72.000000 46.000000"  preserveAspectRatio="xMidYMid meet">  <g transform="translate(0.000000,46.000000) scale(0.100000,-0.100000)" fill="#1243b5" stroke="none"> <path d="M310 355 c-7 -9 -9 -22 -5 -32 8 -17 8 -17 12 0 4 15 17 17 94 17 l89 0 0 -60 c0 -50 -3 -60 -17 -60 -13 0 -14 -3 -6 -11 7 -7 19 -9 28 -5 13 5 15 19 13 83 l-3 78 -96 3 c-76 2 -99 0 -109 -13z"/> <path d="M234 277 c-3 -8 -4 -45 -2 -83 l3 -69 94 -3 c60 -2 98 1 107 9 18 14 19 130 2 147 -18 18 -197 16 -204 -1z m191 -72 l0 -60 -87 -3 -88 -3 0 66 0 66 88 -3 87 -3 0 -60z"/> <path d="M310 226 c-27 -33 18 -72 48 -42 13 13 14 20 6 34 -15 23 -38 26 -54 8z"/> </g> </svg> 